<svg width="175" height="28" viewBox="0 0 175 28" fill="none" xmlns="http://www.w3.org/2000/svg">
<path d="M8.996 21.28C7.22267 21.28 5.70133 20.9907 4.432 20.412C3.18133 19.8333 2.20133 18.984 1.492 17.864C0.801333 16.744 0.418667 15.3533 0.344 13.692C0.325333 12.9267 0.316 12.1053 0.316 11.228C0.316 10.3507 0.325333 9.51067 0.344 8.708C0.418667 7.084 0.810667 5.712 1.52 4.592C2.22933 3.45333 3.21867 2.59467 4.488 2.016C5.75733 1.41867 7.26 1.12 8.996 1.12C10.228 1.12 11.3667 1.27867 12.412 1.596C13.4573 1.89467 14.372 2.34267 15.156 2.94C15.94 3.51867 16.5467 4.228 16.976 5.068C17.424 5.88933 17.6573 6.82267 17.676 7.868C17.6947 8.036 17.6387 8.176 17.508 8.288C17.396 8.4 17.256 8.456 17.088 8.456H13.308C13.0653 8.456 12.8787 8.40933 12.748 8.316C12.6173 8.204 12.5053 8.008 12.412 7.728C12.1507 6.73867 11.7213 6.06667 11.124 5.712C10.5453 5.33867 9.82667 5.152 8.968 5.152C7.94133 5.152 7.12933 5.44133 6.532 6.02C5.93467 6.58 5.608 7.52267 5.552 8.848C5.496 10.3787 5.496 11.9467 5.552 13.552C5.608 14.8773 5.93467 15.8293 6.532 16.408C7.12933 16.968 7.94133 17.248 8.968 17.248C9.82667 17.248 10.5547 17.0613 11.152 16.688C11.7493 16.3147 12.1693 15.6427 12.412 14.672C12.4867 14.392 12.5893 14.2053 12.72 14.112C12.8693 14 13.0653 13.944 13.308 13.944H17.088C17.256 13.944 17.396 14 17.508 14.112C17.6387 14.224 17.6947 14.364 17.676 14.532C17.6573 15.5773 17.424 16.52 16.976 17.36C16.5467 18.1813 15.94 18.8907 15.156 19.488C14.372 20.0667 13.4573 20.5147 12.412 20.832C11.3667 21.1307 10.228 21.28 8.996 21.28ZM27.2002 21.28C25.6322 21.28 24.3068 21.028 23.2242 20.524C22.1602 20.02 21.3388 19.3013 20.7602 18.368C20.2002 17.416 19.8828 16.2867 19.8082 14.98C19.7895 14.6067 19.7802 14.1867 19.7802 13.72C19.7802 13.2347 19.7895 12.8147 19.8082 12.46C19.8828 11.1347 20.2188 10.0053 20.8162 9.072C21.4135 8.13867 22.2442 7.42 23.3082 6.916C24.3908 6.412 25.6882 6.16 27.2002 6.16C28.7308 6.16 30.0282 6.412 31.0922 6.916C32.1748 7.42 33.0148 8.13867 33.6122 9.072C34.2095 10.0053 34.5455 11.1347 34.6202 12.46C34.6388 12.8147 34.6482 13.2347 34.6482 13.72C34.6482 14.1867 34.6388 14.6067 34.6202 14.98C34.5455 16.2867 34.2188 17.416 33.6402 18.368C33.0802 19.3013 32.2588 20.02 31.1762 20.524C30.1122 21.028 28.7868 21.28 27.2002 21.28ZM27.2002 17.864C28.0402 17.864 28.6468 17.612 29.0202 17.108C29.4122 16.604 29.6362 15.848 29.6922 14.84C29.7108 14.56 29.7202 14.1867 29.7202 13.72C29.7202 13.2533 29.7108 12.88 29.6922 12.6C29.6362 11.6107 29.4122 10.864 29.0202 10.36C28.6468 9.83733 28.0402 9.576 27.2002 9.576C26.3788 9.576 25.7722 9.83733 25.3802 10.36C24.9882 10.864 24.7735 11.6107 24.7362 12.6C24.7175 12.88 24.7082 13.2533 24.7082 13.72C24.7082 14.1867 24.7175 14.56 24.7362 14.84C24.7735 15.848 24.9882 16.604 25.3802 17.108C25.7722 17.612 26.3788 17.864 27.2002 17.864ZM44.542 27.16C43.1047 27.16 41.91 26.9733 40.958 26.6C40.0247 26.2267 39.278 25.7787 38.718 25.256C38.1767 24.7333 37.7847 24.2107 37.542 23.688C37.2993 23.184 37.1687 22.7827 37.15 22.484C37.1313 22.2787 37.1967 22.1107 37.346 21.98C37.4953 21.8493 37.6727 21.784 37.878 21.784H41.434C41.602 21.784 41.742 21.8213 41.854 21.896C41.9847 21.9893 42.0873 22.1387 42.162 22.344C42.2553 22.5493 42.3767 22.764 42.526 22.988C42.694 23.212 42.918 23.3893 43.198 23.52C43.4967 23.6693 43.898 23.744 44.402 23.744C44.962 23.744 45.4287 23.6507 45.802 23.464C46.1753 23.296 46.4553 23.0067 46.642 22.596C46.8287 22.204 46.922 21.672 46.922 21V19.124C46.4927 19.5907 45.942 19.9733 45.27 20.272C44.598 20.552 43.786 20.692 42.834 20.692C41.882 20.692 41.042 20.552 40.314 20.272C39.586 19.992 38.9793 19.572 38.494 19.012C38.0087 18.452 37.626 17.7707 37.346 16.968C37.0847 16.1653 36.926 15.2413 36.87 14.196C36.8513 13.7107 36.8513 13.2253 36.87 12.74C36.926 11.732 37.0847 10.8267 37.346 10.024C37.6073 9.22133 37.9807 8.53067 38.466 7.952C38.97 7.37333 39.586 6.93467 40.314 6.636C41.042 6.31867 41.882 6.16 42.834 6.16C43.842 6.16 44.7007 6.356 45.41 6.748C46.138 7.12133 46.7353 7.59733 47.202 8.176V7.14C47.202 6.95333 47.2673 6.79467 47.398 6.664C47.5287 6.51467 47.6967 6.44 47.902 6.44H51.122C51.3273 6.44 51.4953 6.51467 51.626 6.664C51.7753 6.79467 51.85 6.95333 51.85 7.14V20.608C51.85 22.0267 51.5607 23.2213 50.982 24.192C50.4033 25.1627 49.5727 25.9 48.49 26.404C47.4073 26.908 46.0913 27.16 44.542 27.16ZM44.346 17.052C44.9433 17.052 45.4287 16.9213 45.802 16.66C46.1753 16.3987 46.446 16.0627 46.614 15.652C46.8007 15.2413 46.9033 14.8027 46.922 14.336C46.9407 14.1307 46.95 13.8413 46.95 13.468C46.95 13.0947 46.9407 12.8147 46.922 12.628C46.9033 12.1427 46.8007 11.6947 46.614 11.284C46.446 10.8733 46.1753 10.5467 45.802 10.304C45.4287 10.0427 44.9433 9.912 44.346 9.912C43.73 9.912 43.2353 10.0427 42.862 10.304C42.5073 10.5653 42.246 10.92 42.078 11.368C41.9287 11.816 41.8353 12.3107 41.798 12.852C41.7793 13.2627 41.7793 13.6827 41.798 14.112C41.8353 14.6533 41.9287 15.148 42.078 15.596C42.246 16.044 42.5073 16.3987 42.862 16.66C43.2353 16.9213 43.73 17.052 44.346 17.052ZM55.8481 21C55.6428 21 55.4748 20.9347 55.3441 20.804C55.2134 20.6733 55.1481 20.5053 55.1481 20.3V7.14C55.1481 6.93467 55.2134 6.76667 55.3441 6.636C55.4748 6.50533 55.6428 6.44 55.8481 6.44H59.0681C59.2734 6.44 59.4414 6.50533 59.5721 6.636C59.7028 6.76667 59.7681 6.93467 59.7681 7.14V8.204C60.2534 7.62533 60.8881 7.14 61.6721 6.748C62.4561 6.356 63.3801 6.16 64.4441 6.16C65.5268 6.16 66.4788 6.40267 67.3001 6.888C68.1401 7.37333 68.7934 8.092 69.2601 9.044C69.7454 9.97733 69.9881 11.1253 69.9881 12.488V20.3C69.9881 20.5053 69.9134 20.6733 69.7641 20.804C69.6334 20.9347 69.4748 21 69.2881 21H65.7601C65.5734 21 65.4054 20.9347 65.2561 20.804C65.1254 20.6733 65.0601 20.5053 65.0601 20.3V12.656C65.0601 11.7787 64.8454 11.1067 64.4161 10.64C64.0054 10.1547 63.3894 9.912 62.5681 9.912C61.8028 9.912 61.1868 10.1547 60.7201 10.64C60.2721 11.1067 60.0481 11.7787 60.0481 12.656V20.3C60.0481 20.5053 59.9734 20.6733 59.8241 20.804C59.6934 20.9347 59.5348 21 59.3481 21H55.8481ZM80.0009 21.28C78.4329 21.28 77.1076 21.028 76.0249 20.524C74.9609 20.02 74.1396 19.3013 73.5609 18.368C73.0009 17.416 72.6836 16.2867 72.6089 14.98C72.5903 14.6067 72.5809 14.1867 72.5809 13.72C72.5809 13.2347 72.5903 12.8147 72.6089 12.46C72.6836 11.1347 73.0196 10.0053 73.6169 9.072C74.2143 8.13867 75.0449 7.42 76.1089 6.916C77.1916 6.412 78.4889 6.16 80.0009 6.16C81.5316 6.16 82.8289 6.412 83.8929 6.916C84.9756 7.42 85.8156 8.13867 86.4129 9.072C87.0103 10.0053 87.3463 11.1347 87.4209 12.46C87.4396 12.8147 87.4489 13.2347 87.4489 13.72C87.4489 14.1867 87.4396 14.6067 87.4209 14.98C87.3463 16.2867 87.0196 17.416 86.4409 18.368C85.8809 19.3013 85.0596 20.02 83.9769 20.524C82.9129 21.028 81.5876 21.28 80.0009 21.28ZM80.0009 17.864C80.8409 17.864 81.4476 17.612 81.8209 17.108C82.2129 16.604 82.4369 15.848 82.4929 14.84C82.5116 14.56 82.5209 14.1867 82.5209 13.72C82.5209 13.2533 82.5116 12.88 82.4929 12.6C82.4369 11.6107 82.2129 10.864 81.8209 10.36C81.4476 9.83733 80.8409 9.576 80.0009 9.576C79.1796 9.576 78.5729 9.83733 78.1809 10.36C77.7889 10.864 77.5743 11.6107 77.5369 12.6C77.5183 12.88 77.5089 13.2533 77.5089 13.72C77.5089 14.1867 77.5183 14.56 77.5369 14.84C77.5743 15.848 77.7889 16.604 78.1809 17.108C78.5729 17.612 79.1796 17.864 80.0009 17.864ZM96.1948 21.28C94.9814 21.28 93.9454 21.1493 93.0868 20.888C92.2468 20.608 91.5561 20.272 91.0148 19.88C90.4921 19.488 90.1001 19.0867 89.8388 18.676C89.5774 18.2467 89.4374 17.8827 89.4188 17.584C89.4001 17.3787 89.4654 17.2107 89.6148 17.08C89.7641 16.9307 89.9228 16.856 90.0908 16.856H93.2828C93.3388 16.856 93.3854 16.8653 93.4228 16.884C93.4601 16.9027 93.5161 16.94 93.5908 16.996C93.8334 17.1267 94.0761 17.2947 94.3188 17.5C94.5614 17.6867 94.8414 17.8547 95.1588 18.004C95.4761 18.1533 95.8588 18.228 96.3068 18.228C96.8294 18.228 97.2681 18.1253 97.6228 17.92C97.9774 17.7147 98.1548 17.4067 98.1548 16.996C98.1548 16.6973 98.0708 16.4547 97.9028 16.268C97.7348 16.0627 97.3894 15.8667 96.8668 15.68C96.3628 15.4933 95.5974 15.3067 94.5708 15.12C93.6001 14.896 92.7508 14.6067 92.0228 14.252C91.2948 13.8787 90.7348 13.4027 90.3428 12.824C89.9508 12.2267 89.7548 11.508 89.7548 10.668C89.7548 9.92133 89.9974 9.20267 90.4828 8.512C90.9681 7.82133 91.6774 7.26133 92.6108 6.832C93.5441 6.384 94.6921 6.16 96.0548 6.16C97.1374 6.16 98.0708 6.29067 98.8548 6.552C99.6574 6.79467 100.329 7.112 100.871 7.504C101.431 7.896 101.851 8.29733 102.131 8.708C102.411 9.11867 102.56 9.492 102.579 9.828C102.597 10.0147 102.541 10.1827 102.411 10.332C102.28 10.4627 102.131 10.528 101.963 10.528H99.0508C98.9761 10.528 98.9014 10.5187 98.8268 10.5C98.7521 10.4627 98.6868 10.4253 98.6308 10.388C98.4068 10.276 98.1828 10.1267 97.9588 9.94C97.7348 9.75333 97.4734 9.58533 97.1748 9.436C96.8761 9.28667 96.5028 9.212 96.0548 9.212C95.5508 9.212 95.1588 9.324 94.8788 9.548C94.5988 9.772 94.4588 10.0613 94.4588 10.416C94.4588 10.6587 94.5334 10.8827 94.6828 11.088C94.8508 11.2933 95.1774 11.48 95.6628 11.648C96.1668 11.816 96.9414 12.0027 97.9868 12.208C99.2748 12.4133 100.301 12.7493 101.067 13.216C101.832 13.664 102.373 14.196 102.691 14.812C103.008 15.4093 103.167 16.044 103.167 16.716C103.167 17.612 102.896 18.4053 102.355 19.096C101.832 19.7867 101.048 20.328 100.003 20.72C98.9574 21.0933 97.6881 21.28 96.1948 21.28ZM112.371 21.28C110.99 21.28 109.767 21.028 108.703 20.524C107.639 20.02 106.79 19.292 106.155 18.34C105.539 17.3693 105.203 16.212 105.147 14.868C105.129 14.5693 105.119 14.196 105.119 13.748C105.119 13.2813 105.129 12.8987 105.147 12.6C105.203 11.2373 105.539 10.08 106.155 9.128C106.771 8.15733 107.611 7.42 108.675 6.916C109.758 6.412 110.99 6.16 112.371 6.16C113.659 6.16 114.761 6.34667 115.675 6.72C116.59 7.07467 117.337 7.52267 117.915 8.064C118.494 8.60533 118.923 9.16533 119.203 9.744C119.502 10.304 119.661 10.7987 119.679 11.228C119.698 11.4147 119.633 11.5827 119.483 11.732C119.334 11.8627 119.166 11.928 118.979 11.928H115.423C115.218 11.928 115.059 11.8813 114.947 11.788C114.835 11.6947 114.733 11.5547 114.639 11.368C114.415 10.7893 114.126 10.3787 113.771 10.136C113.435 9.89333 112.997 9.772 112.455 9.772C111.709 9.772 111.13 10.0147 110.719 10.5C110.327 10.9853 110.113 11.732 110.075 12.74C110.057 13.4867 110.057 14.1493 110.075 14.728C110.113 15.7547 110.327 16.5013 110.719 16.968C111.13 17.4347 111.709 17.668 112.455 17.668C113.034 17.668 113.491 17.5467 113.827 17.304C114.163 17.0613 114.434 16.6507 114.639 16.072C114.733 15.8853 114.835 15.7453 114.947 15.652C115.059 15.5587 115.218 15.512 115.423 15.512H118.979C119.166 15.512 119.334 15.5867 119.483 15.736C119.633 15.8667 119.698 16.0253 119.679 16.212C119.661 16.5293 119.567 16.9027 119.399 17.332C119.231 17.7427 118.97 18.1813 118.615 18.648C118.261 19.1147 117.794 19.5533 117.215 19.964C116.655 20.356 115.974 20.6733 115.171 20.916C114.369 21.1587 113.435 21.28 112.371 21.28ZM128.915 21.28C126.712 21.28 124.958 20.6827 123.651 19.488C122.344 18.2933 121.663 16.52 121.607 14.168C121.607 14.0373 121.607 13.8693 121.607 13.664C121.607 13.4587 121.607 13.3 121.607 13.188C121.663 11.7133 121.99 10.4533 122.587 9.408C123.203 8.344 124.043 7.54133 125.107 7C126.19 6.44 127.45 6.16 128.887 6.16C130.53 6.16 131.883 6.48667 132.947 7.14C134.03 7.79333 134.842 8.68 135.383 9.8C135.924 10.92 136.195 12.1987 136.195 13.636V14.308C136.195 14.5133 136.12 14.6813 135.971 14.812C135.84 14.9427 135.682 15.008 135.495 15.008H126.535C126.535 15.0267 126.535 15.0547 126.535 15.092C126.535 15.1293 126.535 15.1667 126.535 15.204C126.554 15.7453 126.647 16.24 126.815 16.688C126.983 17.136 127.244 17.4907 127.599 17.752C127.954 18.0133 128.383 18.144 128.887 18.144C129.26 18.144 129.568 18.088 129.811 17.976C130.072 17.8453 130.287 17.7053 130.455 17.556C130.623 17.388 130.754 17.248 130.847 17.136C131.015 16.9493 131.146 16.8373 131.239 16.8C131.351 16.744 131.519 16.716 131.743 16.716H135.215C135.402 16.716 135.551 16.772 135.663 16.884C135.794 16.9773 135.85 17.1173 135.831 17.304C135.812 17.6213 135.654 18.004 135.355 18.452C135.056 18.9 134.618 19.348 134.039 19.796C133.479 20.2253 132.77 20.58 131.911 20.86C131.052 21.14 130.054 21.28 128.915 21.28ZM126.535 12.236H131.267V12.18C131.267 11.5827 131.174 11.06 130.987 10.612C130.819 10.164 130.548 9.81867 130.175 9.576C129.82 9.33333 129.391 9.212 128.887 9.212C128.383 9.212 127.954 9.33333 127.599 9.576C127.263 9.81867 127.002 10.164 126.815 10.612C126.628 11.06 126.535 11.5827 126.535 12.18V12.236ZM139.52 21C139.315 21 139.147 20.9347 139.016 20.804C138.885 20.6733 138.82 20.5053 138.82 20.3V7.14C138.82 6.93467 138.885 6.76667 139.016 6.636C139.147 6.50533 139.315 6.44 139.52 6.44H142.74C142.945 6.44 143.113 6.50533 143.244 6.636C143.375 6.76667 143.44 6.93467 143.44 7.14V8.204C143.925 7.62533 144.56 7.14 145.344 6.748C146.128 6.356 147.052 6.16 148.116 6.16C149.199 6.16 150.151 6.40267 150.972 6.888C151.812 7.37333 152.465 8.092 152.932 9.044C153.417 9.97733 153.66 11.1253 153.66 12.488V20.3C153.66 20.5053 153.585 20.6733 153.436 20.804C153.305 20.9347 153.147 21 152.96 21H149.432C149.245 21 149.077 20.9347 148.928 20.804C148.797 20.6733 148.732 20.5053 148.732 20.3V12.656C148.732 11.7787 148.517 11.1067 148.088 10.64C147.677 10.1547 147.061 9.912 146.24 9.912C145.475 9.912 144.859 10.1547 144.392 10.64C143.944 11.1067 143.72 11.7787 143.72 12.656V20.3C143.72 20.5053 143.645 20.6733 143.496 20.804C143.365 20.9347 143.207 21 143.02 21H139.52ZM164.096 21C162.901 21 161.865 20.8133 160.988 20.44C160.129 20.048 159.467 19.4507 159 18.648C158.533 17.8267 158.3 16.772 158.3 15.484V10.108H156.116C155.911 10.108 155.733 10.0427 155.584 9.912C155.453 9.78133 155.388 9.61333 155.388 9.408V7.14C155.388 6.93467 155.453 6.76667 155.584 6.636C155.733 6.50533 155.911 6.44 156.116 6.44H158.3V1.82C158.3 1.61467 158.365 1.44667 158.496 1.316C158.645 1.18533 158.813 1.12 159 1.12H162.248C162.453 1.12 162.621 1.18533 162.752 1.316C162.883 1.44667 162.948 1.61467 162.948 1.82V6.44H166.448C166.653 6.44 166.821 6.50533 166.952 6.636C167.083 6.76667 167.148 6.93467 167.148 7.14V9.408C167.148 9.61333 167.083 9.78133 166.952 9.912C166.821 10.0427 166.653 10.108 166.448 10.108H162.948V15.092C162.948 15.7267 163.069 16.2307 163.312 16.604C163.555 16.9773 163.965 17.164 164.544 17.164H166.7C166.905 17.164 167.073 17.2293 167.204 17.36C167.335 17.4907 167.4 17.6587 167.4 17.864V20.3C167.4 20.5053 167.335 20.6733 167.204 20.804C167.073 20.9347 166.905 21 166.7 21H164.096ZM170.418 21C170.213 21 170.045 20.9347 169.914 20.804C169.784 20.6733 169.718 20.5053 169.718 20.3V7.14C169.718 6.93467 169.784 6.76667 169.914 6.636C170.045 6.50533 170.213 6.44 170.418 6.44H173.722C173.909 6.44 174.068 6.50533 174.198 6.636C174.348 6.76667 174.422 6.93467 174.422 7.14V20.3C174.422 20.5053 174.348 20.6733 174.198 20.804C174.068 20.9347 173.909 21 173.722 21H170.418ZM170.39 4.34C170.185 4.34 170.017 4.27467 169.886 4.144C169.756 4.01333 169.69 3.84533 169.69 3.64V1.148C169.69 0.942666 169.756 0.774666 169.886 0.643998C170.017 0.494666 170.185 0.42 170.39 0.42H173.722C173.928 0.42 174.096 0.494666 174.226 0.643998C174.376 0.774666 174.45 0.942666 174.45 1.148V3.64C174.45 3.84533 174.376 4.01333 174.226 4.144C174.096 4.27467 173.928 4.34 173.722 4.34H170.39Z" fill="url(#paint0_linear_171_3231)"/>
<defs>
<linearGradient id="paint0_linear_171_3231" x1="-29.4867" y1="21.4105" x2="165.86" y2="-82.4963" gradientUnits="userSpaceOnUse">
<stop stop-color="#1EBEA5"/>
<stop offset="0.247103" stop-color="#00B5C4"/>
<stop offset="0.50775" stop-color="#00A8E6"/>
<stop offset="0.72982" stop-color="#0096FD"/>
<stop offset="0.956406" stop-color="#157AFB"/>
</linearGradient>
</defs>
</svg>
