<svg width="147" height="24" viewBox="0 0 147 24" fill="none" xmlns="http://www.w3.org/2000/svg">
<path d="M9.268 21.28C7.40133 21.28 5.852 21.0187 4.62 20.496C3.388 19.9547 2.45467 19.2547 1.82 18.396C1.18533 17.5373 0.849333 16.6227 0.812 15.652C0.812 15.5027 0.868 15.372 0.98 15.26C1.11067 15.1293 1.26 15.064 1.428 15.064H4.956C5.21733 15.064 5.41333 15.1107 5.544 15.204C5.69333 15.2973 5.824 15.4187 5.936 15.568C6.08533 15.848 6.29067 16.1187 6.552 16.38C6.832 16.6413 7.18667 16.856 7.616 17.024C8.064 17.1733 8.61467 17.248 9.268 17.248C10.3507 17.248 11.1627 17.08 11.704 16.744C12.264 16.408 12.544 15.9507 12.544 15.372C12.544 14.9613 12.3947 14.6253 12.096 14.364C11.7973 14.084 11.312 13.8413 10.64 13.636C9.98667 13.412 9.10933 13.188 8.008 12.964C6.58933 12.6653 5.376 12.2827 4.368 11.816C3.37867 11.3307 2.62267 10.7053 2.1 9.94C1.57733 9.156 1.316 8.18533 1.316 7.028C1.316 5.88933 1.63333 4.872 2.268 3.976C2.92133 3.08 3.82667 2.38 4.984 1.876C6.14133 1.372 7.51333 1.12 9.1 1.12C10.388 1.12 11.5173 1.288 12.488 1.624C13.4773 1.96 14.308 2.408 14.98 2.968C15.652 3.528 16.156 4.12533 16.492 4.76C16.8467 5.376 17.0333 5.98267 17.052 6.58C17.052 6.72933 16.996 6.86933 16.884 7C16.772 7.112 16.632 7.168 16.464 7.168H12.768C12.5627 7.168 12.3853 7.13067 12.236 7.056C12.0867 6.98133 11.956 6.86 11.844 6.692C11.732 6.28133 11.4333 5.92667 10.948 5.628C10.4813 5.31067 9.86533 5.152 9.1 5.152C8.27867 5.152 7.63467 5.30133 7.168 5.6C6.72 5.88 6.496 6.31867 6.496 6.916C6.496 7.28933 6.61733 7.616 6.86 7.896C7.12133 8.176 7.54133 8.41867 8.12 8.624C8.71733 8.82933 9.52933 9.044 10.556 9.268C12.2547 9.58533 13.6267 9.98667 14.672 10.472C15.7173 10.9387 16.4827 11.5547 16.968 12.32C17.4533 13.0667 17.696 14.0093 17.696 15.148C17.696 16.4173 17.332 17.5187 16.604 18.452C15.8947 19.3667 14.9053 20.0667 13.636 20.552C12.3667 21.0373 10.9107 21.28 9.268 21.28ZM26.8831 21.28C25.5017 21.28 24.2791 21.028 23.2151 20.524C22.1511 20.02 21.3017 19.292 20.6671 18.34C20.0511 17.3693 19.7151 16.212 19.6591 14.868C19.6404 14.5693 19.6311 14.196 19.6311 13.748C19.6311 13.2813 19.6404 12.8987 19.6591 12.6C19.7151 11.2373 20.0511 10.08 20.6671 9.128C21.2831 8.15733 22.1231 7.42 23.1871 6.916C24.2697 6.412 25.5017 6.16 26.8831 6.16C28.1711 6.16 29.2724 6.34667 30.1871 6.72C31.1017 7.07467 31.8484 7.52267 32.4271 8.064C33.0057 8.60533 33.4351 9.16533 33.7151 9.744C34.0137 10.304 34.1724 10.7987 34.1911 11.228C34.2097 11.4147 34.1444 11.5827 33.9951 11.732C33.8457 11.8627 33.6777 11.928 33.4911 11.928H29.9351C29.7297 11.928 29.5711 11.8813 29.4591 11.788C29.3471 11.6947 29.2444 11.5547 29.1511 11.368C28.9271 10.7893 28.6377 10.3787 28.2831 10.136C27.9471 9.89333 27.5084 9.772 26.9671 9.772C26.2204 9.772 25.6417 10.0147 25.2311 10.5C24.8391 10.9853 24.6244 11.732 24.5871 12.74C24.5684 13.4867 24.5684 14.1493 24.5871 14.728C24.6244 15.7547 24.8391 16.5013 25.2311 16.968C25.6417 17.4347 26.2204 17.668 26.9671 17.668C27.5457 17.668 28.0031 17.5467 28.3391 17.304C28.6751 17.0613 28.9457 16.6507 29.1511 16.072C29.2444 15.8853 29.3471 15.7453 29.4591 15.652C29.5711 15.5587 29.7297 15.512 29.9351 15.512H33.4911C33.6777 15.512 33.8457 15.5867 33.9951 15.736C34.1444 15.8667 34.2097 16.0253 34.1911 16.212C34.1724 16.5293 34.0791 16.9027 33.9111 17.332C33.7431 17.7427 33.4817 18.1813 33.1271 18.648C32.7724 19.1147 32.3057 19.5533 31.7271 19.964C31.1671 20.356 30.4857 20.6733 29.6831 20.916C28.8804 21.1587 27.9471 21.28 26.8831 21.28ZM37.4067 21C37.2014 21 37.0334 20.9347 36.9027 20.804C36.772 20.6733 36.7067 20.5053 36.7067 20.3V7.14C36.7067 6.93467 36.772 6.76667 36.9027 6.636C37.0334 6.50533 37.2014 6.44 37.4067 6.44H40.7107C40.8974 6.44 41.056 6.50533 41.1867 6.636C41.336 6.76667 41.4107 6.93467 41.4107 7.14V20.3C41.4107 20.5053 41.336 20.6733 41.1867 20.804C41.056 20.9347 40.8974 21 40.7107 21H37.4067ZM37.3787 4.34C37.1734 4.34 37.0054 4.27467 36.8747 4.144C36.744 4.01333 36.6787 3.84533 36.6787 3.64V1.148C36.6787 0.942666 36.744 0.774666 36.8747 0.643998C37.0054 0.494666 37.1734 0.42 37.3787 0.42H40.7107C40.916 0.42 41.084 0.494666 41.2147 0.643998C41.364 0.774666 41.4387 0.942666 41.4387 1.148V3.64C41.4387 3.84533 41.364 4.01333 41.2147 4.144C41.084 4.27467 40.916 4.34 40.7107 4.34H37.3787ZM45.6991 21C45.4937 21 45.3257 20.9347 45.1951 20.804C45.0644 20.6733 44.9991 20.5053 44.9991 20.3V2.1C44.9991 1.89467 45.0644 1.72667 45.1951 1.596C45.3257 1.46533 45.4937 1.4 45.6991 1.4H53.5391C55.0884 1.4 56.4324 1.64267 57.5711 2.128C58.7284 2.59467 59.6244 3.304 60.2591 4.256C60.9124 5.208 61.2391 6.412 61.2391 7.868C61.2391 9.30533 60.9124 10.4907 60.2591 11.424C59.6244 12.3573 58.7284 13.048 57.5711 13.496C56.4324 13.944 55.0884 14.168 53.5391 14.168H50.2071V20.3C50.2071 20.5053 50.1324 20.6733 49.9831 20.804C49.8524 20.9347 49.6844 21 49.4791 21H45.6991ZM50.1231 10.304H53.3991C54.2017 10.304 54.8364 10.0987 55.3031 9.688C55.7884 9.27733 56.0311 8.652 56.0311 7.812C56.0311 7.10267 55.8257 6.50533 55.4151 6.02C55.0044 5.53467 54.3324 5.292 53.3991 5.292H50.1231V10.304ZM64.3129 21C64.1076 21 63.9396 20.9347 63.8089 20.804C63.6783 20.6733 63.6129 20.5053 63.6129 20.3V7.14C63.6129 6.95333 63.6783 6.79467 63.8089 6.664C63.9396 6.51467 64.1076 6.44 64.3129 6.44H67.5329C67.7383 6.44 67.9063 6.51467 68.0369 6.664C68.1676 6.79467 68.2329 6.95333 68.2329 7.14V8.26C68.7369 7.68133 69.3343 7.23333 70.0249 6.916C70.7343 6.59867 71.5276 6.44 72.4049 6.44H73.6369C73.8236 6.44 73.9823 6.50533 74.1129 6.636C74.2623 6.76667 74.3369 6.93467 74.3369 7.14V10.024C74.3369 10.2107 74.2623 10.3787 74.1129 10.528C73.9823 10.6587 73.8236 10.724 73.6369 10.724H70.9209C70.1556 10.724 69.5583 10.9387 69.1289 11.368C68.7183 11.7787 68.5129 12.3667 68.5129 13.132V20.3C68.5129 20.5053 68.4383 20.6733 68.2889 20.804C68.1583 20.9347 67.9903 21 67.7849 21H64.3129ZM82.9384 21.28C80.7357 21.28 78.9811 20.6827 77.6744 19.488C76.3677 18.2933 75.6864 16.52 75.6304 14.168C75.6304 14.0373 75.6304 13.8693 75.6304 13.664C75.6304 13.4587 75.6304 13.3 75.6304 13.188C75.6864 11.7133 76.0131 10.4533 76.6104 9.408C77.2264 8.344 78.0664 7.54133 79.1304 7C80.2131 6.44 81.4731 6.16 82.9104 6.16C84.5531 6.16 85.9064 6.48667 86.9704 7.14C88.0531 7.79333 88.8651 8.68 89.4064 9.8C89.9477 10.92 90.2184 12.1987 90.2184 13.636V14.308C90.2184 14.5133 90.1437 14.6813 89.9944 14.812C89.8637 14.9427 89.7051 15.008 89.5184 15.008H80.5584C80.5584 15.0267 80.5584 15.0547 80.5584 15.092C80.5584 15.1293 80.5584 15.1667 80.5584 15.204C80.5771 15.7453 80.6704 16.24 80.8384 16.688C81.0064 17.136 81.2677 17.4907 81.6224 17.752C81.9771 18.0133 82.4064 18.144 82.9104 18.144C83.2837 18.144 83.5917 18.088 83.8344 17.976C84.0957 17.8453 84.3104 17.7053 84.4784 17.556C84.6464 17.388 84.7771 17.248 84.8704 17.136C85.0384 16.9493 85.1691 16.8373 85.2624 16.8C85.3744 16.744 85.5424 16.716 85.7664 16.716H89.2384C89.4251 16.716 89.5744 16.772 89.6864 16.884C89.8171 16.9773 89.8731 17.1173 89.8544 17.304C89.8357 17.6213 89.6771 18.004 89.3784 18.452C89.0797 18.9 88.6411 19.348 88.0624 19.796C87.5024 20.2253 86.7931 20.58 85.9344 20.86C85.0757 21.14 84.0771 21.28 82.9384 21.28ZM80.5584 12.236H85.2904V12.18C85.2904 11.5827 85.1971 11.06 85.0104 10.612C84.8424 10.164 84.5717 9.81867 84.1984 9.576C83.8437 9.33333 83.4144 9.212 82.9104 9.212C82.4064 9.212 81.9771 9.33333 81.6224 9.576C81.2864 9.81867 81.0251 10.164 80.8384 10.612C80.6517 11.06 80.5584 11.5827 80.5584 12.18V12.236ZM98.2754 21.28C97.3794 21.28 96.5674 21.14 95.8394 20.86C95.1301 20.5613 94.5141 20.132 93.9914 19.572C93.4874 18.9933 93.0954 18.3027 92.8154 17.5C92.5354 16.6787 92.3767 15.7453 92.3394 14.7C92.3207 14.3267 92.3114 14 92.3114 13.72C92.3114 13.4213 92.3207 13.0947 92.3394 12.74C92.3767 11.732 92.5354 10.8267 92.8154 10.024C93.0954 9.22133 93.4874 8.53067 93.9914 7.952C94.4954 7.37333 95.1114 6.93467 95.8394 6.636C96.5674 6.31867 97.3794 6.16 98.2754 6.16C99.2087 6.16 100.011 6.31867 100.683 6.636C101.355 6.93467 101.925 7.32667 102.391 7.812V1.82C102.391 1.61467 102.457 1.44667 102.587 1.316C102.718 1.18533 102.886 1.12 103.091 1.12H106.507C106.694 1.12 106.853 1.18533 106.983 1.316C107.133 1.44667 107.207 1.61467 107.207 1.82V20.3C107.207 20.5053 107.133 20.6733 106.983 20.804C106.853 20.9347 106.694 21 106.507 21H103.343C103.138 21 102.97 20.9347 102.839 20.804C102.709 20.6733 102.643 20.5053 102.643 20.3V19.404C102.195 19.9453 101.617 20.3933 100.907 20.748C100.198 21.1027 99.3207 21.28 98.2754 21.28ZM99.7874 17.528C100.422 17.528 100.917 17.3973 101.271 17.136C101.645 16.856 101.915 16.5013 102.083 16.072C102.27 15.6427 102.373 15.176 102.391 14.672C102.41 14.2987 102.419 13.944 102.419 13.608C102.419 13.272 102.41 12.9267 102.391 12.572C102.373 12.1053 102.27 11.676 102.083 11.284C101.897 10.8733 101.617 10.5467 101.243 10.304C100.87 10.0427 100.385 9.912 99.7874 9.912C99.1714 9.912 98.6767 10.0427 98.3034 10.304C97.9487 10.5653 97.6967 10.92 97.5474 11.368C97.3981 11.816 97.3047 12.3107 97.2674 12.852C97.2114 13.4307 97.2114 14.0093 97.2674 14.588C97.3047 15.1293 97.3981 15.624 97.5474 16.072C97.6967 16.52 97.9487 16.8747 98.3034 17.136C98.6767 17.3973 99.1714 17.528 99.7874 17.528ZM111.207 21C111.002 21 110.834 20.9347 110.703 20.804C110.573 20.6733 110.507 20.5053 110.507 20.3V7.14C110.507 6.93467 110.573 6.76667 110.703 6.636C110.834 6.50533 111.002 6.44 111.207 6.44H114.511C114.698 6.44 114.857 6.50533 114.987 6.636C115.137 6.76667 115.211 6.93467 115.211 7.14V20.3C115.211 20.5053 115.137 20.6733 114.987 20.804C114.857 20.9347 114.698 21 114.511 21H111.207ZM111.179 4.34C110.974 4.34 110.806 4.27467 110.675 4.144C110.545 4.01333 110.479 3.84533 110.479 3.64V1.148C110.479 0.942666 110.545 0.774666 110.675 0.643998C110.806 0.494666 110.974 0.42 111.179 0.42H114.511C114.717 0.42 114.885 0.494666 115.015 0.643998C115.165 0.774666 115.239 0.942666 115.239 1.148V3.64C115.239 3.84533 115.165 4.01333 115.015 4.144C114.885 4.27467 114.717 4.34 114.511 4.34H111.179ZM125.321 21.28C123.939 21.28 122.717 21.028 121.653 20.524C120.589 20.02 119.739 19.292 119.105 18.34C118.489 17.3693 118.153 16.212 118.097 14.868C118.078 14.5693 118.069 14.196 118.069 13.748C118.069 13.2813 118.078 12.8987 118.097 12.6C118.153 11.2373 118.489 10.08 119.105 9.128C119.721 8.15733 120.561 7.42 121.625 6.916C122.707 6.412 123.939 6.16 125.321 6.16C126.609 6.16 127.71 6.34667 128.625 6.72C129.539 7.07467 130.286 7.52267 130.865 8.064C131.443 8.60533 131.873 9.16533 132.153 9.744C132.451 10.304 132.61 10.7987 132.629 11.228C132.647 11.4147 132.582 11.5827 132.433 11.732C132.283 11.8627 132.115 11.928 131.929 11.928H128.373C128.167 11.928 128.009 11.8813 127.897 11.788C127.785 11.6947 127.682 11.5547 127.589 11.368C127.365 10.7893 127.075 10.3787 126.721 10.136C126.385 9.89333 125.946 9.772 125.405 9.772C124.658 9.772 124.079 10.0147 123.669 10.5C123.277 10.9853 123.062 11.732 123.025 12.74C123.006 13.4867 123.006 14.1493 123.025 14.728C123.062 15.7547 123.277 16.5013 123.669 16.968C124.079 17.4347 124.658 17.668 125.405 17.668C125.983 17.668 126.441 17.5467 126.777 17.304C127.113 17.0613 127.383 16.6507 127.589 16.072C127.682 15.8853 127.785 15.7453 127.897 15.652C128.009 15.5587 128.167 15.512 128.373 15.512H131.929C132.115 15.512 132.283 15.5867 132.433 15.736C132.582 15.8667 132.647 16.0253 132.629 16.212C132.61 16.5293 132.517 16.9027 132.349 17.332C132.181 17.7427 131.919 18.1813 131.565 18.648C131.21 19.1147 130.743 19.5533 130.165 19.964C129.605 20.356 128.923 20.6733 128.121 20.916C127.318 21.1587 126.385 21.28 125.321 21.28ZM142.592 21C141.398 21 140.362 20.8133 139.484 20.44C138.626 20.048 137.963 19.4507 137.496 18.648C137.03 17.8267 136.796 16.772 136.796 15.484V10.108H134.612C134.407 10.108 134.23 10.0427 134.08 9.912C133.95 9.78133 133.884 9.61333 133.884 9.408V7.14C133.884 6.93467 133.95 6.76667 134.08 6.636C134.23 6.50533 134.407 6.44 134.612 6.44H136.796V1.82C136.796 1.61467 136.862 1.44667 136.992 1.316C137.142 1.18533 137.31 1.12 137.496 1.12H140.744C140.95 1.12 141.118 1.18533 141.248 1.316C141.379 1.44667 141.444 1.61467 141.444 1.82V6.44H144.944C145.15 6.44 145.318 6.50533 145.448 6.636C145.579 6.76667 145.644 6.93467 145.644 7.14V9.408C145.644 9.61333 145.579 9.78133 145.448 9.912C145.318 10.0427 145.15 10.108 144.944 10.108H141.444V15.092C141.444 15.7267 141.566 16.2307 141.808 16.604C142.051 16.9773 142.462 17.164 143.04 17.164H145.196C145.402 17.164 145.57 17.2293 145.7 17.36C145.831 17.4907 145.896 17.6587 145.896 17.864V20.3C145.896 20.5053 145.831 20.6733 145.7 20.804C145.57 20.9347 145.402 21 145.196 21H142.592Z" fill="url(#paint0_linear_101_7601)"/>
<defs>
<linearGradient id="paint0_linear_101_7601" x1="-23.5256" y1="21.4105" x2="149.967" y2="-54.8" gradientUnits="userSpaceOnUse">
<stop stop-color="#1EBEA5"/>
<stop offset="0.247103" stop-color="#00B5C4"/>
<stop offset="0.50775" stop-color="#00A8E6"/>
<stop offset="0.72982" stop-color="#0096FD"/>
<stop offset="0.956406" stop-color="#157AFB"/>
</linearGradient>
</defs>
</svg>
